<?xml version="1.0" encoding="utf-8"?>
<!-- Generator: Adobe Illustrator 16.0.0, SVG Export Plug-In . SVG Version: 6.00 Build 0)  -->
<!DOCTYPE svg PUBLIC "-//W3C//DTD SVG 1.1//EN" "http://www.w3.org/Graphics/SVG/1.1/DTD/svg11.dtd">
<svg version="1.1" id="Layer_1" xmlns="http://www.w3.org/2000/svg" xmlns:xlink="http://www.w3.org/1999/xlink" x="0px" y="0px"
	 width="1048px" height="954px" viewBox="0 0 1048 954" enable-background="new 0 0 1048 954" xml:space="preserve">
	<path fill="#ffffff" d="M189.89,713.77C272.94,527.76,355.95,341.73,439.02,155.72c7.37-0.04,14.75,0.02,22.12-0.03
	c34.25,74.95,68.051,150.11,102.16,225.12c16.82,37.34,33.91,74.56,50.62,111.959c-22.68,9-45.479,17.73-68.16,26.74
	C528.7,483,512.26,446.19,495.44,409.56c-14.9-32.68-29.82-65.339-44.69-98.03c-0.66,0.76-1.24,1.57-1.73,2.44
	C397.03,428.38,345.08,542.81,293.09,657.22c-7.76,17.33-15.87,34.511-23.41,51.931c11.96-3.841,23.47-9,35.25-13.37
	C485.8,625.4,666.68,555.03,847.55,484.63c6.101-2.09,11.891-5.149,18.19-6.63c9.88,24.06,20.41,47.85,30.22,71.93
	C673.75,633.4,451.48,716.71,229.26,800.16c-1.67,0.64-3.48,0.52-5.23,0.56c-24.39-0.1-48.79,0.08-73.18-0.09
	C163.3,771.42,177.11,742.83,189.89,713.77z"/>
	<path fill="#ffffff" d="M640.43,728.03c22.62-9,45.351-17.71,67.94-26.75c15.58,32.92,30.43,66.22,45.57,99.359
	c-26.761,0.061-53.521,0.16-80.271-0.05C662.66,776.37,651.41,752.26,640.43,728.03z"/>
</svg>
